{"title":"Lost in Space(1998)Mp-4[DaScubaDude]","uid":12351151,"size":1592330248,"categoryP":"video","categoryS":"movies","magnet":"?xt=urn:btih:78736ab6a95883d97e06a80a8b0207bb9c24e76c&amp;dn=Lost+in+Space%281998%29Mp-4%5BDaScubaDude%5D&amp;tr=udp%3A%2F%2Ftracker.openbittorrent.com%3A80&amp;tr=udp%3A%2F%2Fopen.demonii.com%3A1337&amp;tr=udp%3A%2F%2Ftracker.coppersurfer.tk%3A6969&amp;tr=udp%3A%2F%2Fexodus.desync.com%3A6969","seeders":1,"leechers":0,"uploader":"dascuba","files":1,"time":1441427381,"description":"Lost in Space (1998)\nPG-13  |  130 min  |  Action, Adventure, Family  |  3 April 1998 (USA)\n5.1 Your rating:   -/10   Ratings: 5.1/10 from 55,840 users   Metascore: 42/100 \nReviews: 371 user | 99 critic | 19 from Metacritic.com\nThe Robinson family was going into space to fight for a chance for humanity. Now they are fighting to live long enough to find a way home.\n\nDirector: Stephen Hopkins\nWriters: Irwin Allen (television series), Akiva Goldsman\nStars: Gary Oldman, William Hurt, Matt LeBlanc \n\nGeneral\nComplete name                            : CLost inSpaceLOST_IN_SPACE_Title1.mp4\nFormat                                   : MPEG-4\nFormat profile                           : Base Media\nCodec ID                                 : isom\nFile size                                : 1.48 GiB\nDuration                                 : 2h 10mn\nOverall bit rate mode                    : Constant\nOverall bit rate                         : 1 632 Kbps\nMovie name                               : LOST_IN_SPACE\nGenre                                    : Science_Fiction\nWriting application                      : Lavf54.6.100\n\nVideo\nID                                       : 1\nFormat                                   : MPEG-4 Visual\nFormat settings, BVOP                    : No\nFormat settings, QPel                    : No\nFormat settings, GMC                     : No warppoints\nFormat settings, Matrix                  : Default (H.263)\nCodec ID                                 : 20\nDuration                                 : 2h 10mn\nBit rate mode                            : Constant\nBit rate                                 : 1 499 Kbps\nWidth                                    : 720 pixels\nHeight                                   : 404 pixels\nDisplay aspect ratio                     : 16:9\nFrame rate mode                          : Constant\nFrame rate                               : 29.970 fps\nColor space                              : YUV\nChroma subsampling                       : 4:2:0\nBit depth                                : 8 bits\nScan type                                : Progressive\nCompression mode                         : Lossy\nBits/(Pixel*Frame)                       : 0.172\nStream size                              : 1.36 GiB (92%)\nWriting library                          : Lavc54.23.100\n\nAudio\nID                                       : 2\nFormat                                   : MPEG Audio\nFormat version                           : Version 1\nFormat profile                           : Layer 3\nCodec ID                                 : 6B\nDuration                                 : 2h 10mn\nBit rate mode                            : Constant\nBit rate                                 : 128 Kbps\nChannel(s)                               : 2 channels\nSampling rate                            : 44.1 KHz\nCompression mode                         : Lossy\nStream size                              : 119 MiB (8%)\nWriting library                          : LAME3.99.5","torrent":{"xt":"urn:btih:78736ab6a95883d97e06a80a8b0207bb9c24e76c","amp;dn":"Lost+in+Space%281998%29Mp-4%5BDaScubaDude%5D","amp;tr":["udp%3A%2F%2Ftracker.openbittorrent.com%3A80","udp%3A%2F%2Fopen.demonii.com%3A1337","udp%3A%2F%2Ftracker.coppersurfer.tk%3A6969","udp%3A%2F%2Fexodus.desync.com%3A6969"],"infoHash":"78736ab6a95883d97e06a80a8b0207bb9c24e76c","infoHashBuffer":{"type":"Buffer","data":[120,115,106,182,169,88,131,217,126,6,168,10,139,2,7,187,156,36,231,108]},"announce":[],"urlList":[]}}